<svg id="Layer_1" data-name="Layer 1" xmlns="http://www.w3.org/2000/svg" xmlns:xlink="http://www.w3.org/1999/xlink" viewBox="0 0 458.83 290.5"><defs><style>.cls-1{font-size:12px;}.cls-1,.cls-11{font-family:MicrosoftJhengHeiUILight, Microsoft JhengHei UI;}.cls-2{fill:url(#radial-gradient);}.cls-3,.cls-4,.cls-5,.cls-6{fill:none;stroke:#000;stroke-miterlimit:10;}.cls-3{stroke-linecap:square;}.cls-5{stroke-dasharray:11.79 11.79;}.cls-6{stroke-dasharray:11.09 11.09;}.cls-7{letter-spacing:0.04em;}.cls-8{letter-spacing:-0.01em;}.cls-9{fill:url(#radial-gradient-2);}.cls-10{fill:url(#radial-gradient-3);}.cls-11{font-size:9px;}</style><radialGradient id="radial-gradient" cx="177.79" cy="165.92" r="22.1" gradientTransform="matrix(-0.71, 0.81, -0.65, -0.75, 353.37, 132.12)" gradientUnits="userSpaceOnUse"><stop offset="0" stop-color="#fff"/><stop offset="1"/></radialGradient><radialGradient id="radial-gradient-2" cx="134.92" cy="208.3" r="22.1" gradientTransform="matrix(0.71, -0.32, 10.48, 4.69, -2157.79, -871.08)" xlink:href="#radial-gradient"/><radialGradient id="radial-gradient-3" cx="123.92" cy="164.56" r="22.1" gradientTransform="matrix(-1.1, -0.71, 1.18, -0.76, 153.53, 310.15)" xlink:href="#radial-gradient"/></defs><title>network</title><text class="cls-1" transform="translate(100.83 207.5)">启动器</text><text x="-28.67" y="-30.5"></text><line class="cls-2" x1="118.89" y1="115.57" x2="118.83" y2="187"/><line class="cls-3" x1="118.89" y1="121.61" x2="118.83" y2="187"/><path d="M147.56,146.07a30.59,30.59,0,0,1-4.76,8.55l4.75-1.72,4.76,1.72A29.93,29.93,0,0,1,147.56,146.07Z" transform="translate(-28.67 -30.5)"/><polyline class="cls-4" points="456.83 284 456.83 290 450.83 290"/><line class="cls-5" x1="439.05" y1="290" x2="67.73" y2="290"/><polyline class="cls-4" points="61.83 290 55.83 290 55.83 284"/><line class="cls-6" x1="55.83" y1="272.91" x2="55.83" y2="167.55"/><polyline class="cls-4" points="55.83 162 55.83 156 61.83 156"/><line class="cls-5" x1="73.62" y1="156" x2="444.94" y2="156"/><polyline class="cls-4" points="450.83 156 456.83 156 456.83 162"/><line class="cls-6" x1="456.83" y1="173.09" x2="456.83" y2="278.45"/><text class="cls-1" transform="translate(0 76.75)">Se<tspan class="cls-7" x="13.03" y="0">r</tspan><tspan class="cls-8" x="17.84" y="0">v</tspan><tspan x="23.65" y="0">er</tspan></text><text class="cls-1" transform="translate(91.83 99)">大厅服务器</text><rect class="cls-4" x="80.83" y="78" width="83" height="38"/><polyline class="cls-4" points="458.33 128.5 458.33 134.5 452.33 134.5"/><line class="cls-5" x1="440.55" y1="134.5" x2="69.23" y2="134.5"/><polyline class="cls-4" points="63.33 134.5 57.33 134.5 57.33 128.5"/><line class="cls-6" x1="57.33" y1="117.41" x2="57.33" y2="12.05"/><polyline class="cls-4" points="57.33 6.5 57.33 0.5 63.33 0.5"/><line class="cls-5" x1="75.12" y1="0.5" x2="446.44" y2="0.5"/><polyline class="cls-4" points="452.33 0.5 458.33 0.5 458.33 6.5"/><line class="cls-6" x1="458.33" y1="17.59" x2="458.33" y2="122.95"/><text class="cls-1" transform="translate(274.83 98.78)">房间服务器</text><rect class="cls-4" x="260.83" y="78" width="83" height="38"/><text class="cls-1" transform="translate(94.83 32.78)">帐号数据库</text><rect class="cls-4" x="80.83" y="12" width="83" height="38"/><line class="cls-9" x1="120.83" y1="78" x2="120.83" y2="50"/><line class="cls-3" x1="120.83" y1="71.96" x2="120.83" y2="56.04"/><path d="M149.5,108.5a30.1,30.1,0,0,1,4.76-8.55l-4.76,1.72L144.75,100A30.31,30.31,0,0,1,149.5,108.5Z" transform="translate(-28.67 -30.5)"/><path d="M149.5,80.5a30.1,30.1,0,0,0,4.76,8.55l-4.76-1.72-4.75,1.72A30.31,30.31,0,0,0,149.5,80.5Z" transform="translate(-28.67 -30.5)"/><line class="cls-10" x1="260.83" y1="97" x2="163.83" y2="97"/><line class="cls-3" x1="254.8" y1="97" x2="163.83" y2="97"/><path d="M289.5,127.5a30.1,30.1,0,0,1-8.55-4.76l1.72,4.76L281,132.25A30.31,30.31,0,0,1,289.5,127.5Z" transform="translate(-28.67 -30.5)"/><text class="cls-11" transform="translate(195 92.86)">session</text><text class="cls-1" transform="translate(0 210.75)">Client</text><rect class="cls-4" x="80.33" y="187.5" width="83" height="30"/></svg>